<?xml version="1.0" encoding="UTF-8"?>
<svg width="322px" height="334px" viewBox="0 0 322 334" version="1.1" xmlns="http://www.w3.org/2000/svg" xmlns:xlink="http://www.w3.org/1999/xlink">
  <!-- Generator: Sketch 52.3 (67297) - http://www.bohemiancoding.com/sketch -->
  <title>Group 85</title>
  <desc>Created with Sketch.</desc>
  <defs>
    <filter x="-0.5%" y="-2.2%" width="101.1%" height="104.4%" filterUnits="objectBoundingBox" id="filter-1">
      <feOffset dx="0" dy="0" in="SourceAlpha" result="shadowOffsetOuter1"></feOffset>
      <feGaussianBlur stdDeviation="2" in="shadowOffsetOuter1" result="shadowBlurOuter1"></feGaussianBlur>
      <feColorMatrix values="0 0 0 0 0   0 0 0 0 0   0 0 0 0 0  0 0 0 0.224404502 0" type="matrix" in="shadowBlurOuter1" result="shadowMatrixOuter1"></feColorMatrix>
      <feMerge>
        <feMergeNode in="shadowMatrixOuter1"></feMergeNode>
        <feMergeNode in="SourceGraphic"></feMergeNode>
      </feMerge>
    </filter>
    <polygon id="path-2" points="0 0.198441532 313.849743 0.198441532 313.849743 158.637787 0 158.637787"></polygon>
    <polygon id="path-4" points="0 0.445603427 313.849875 0.445603427 313.849875 158.885015 0 158.885015"></polygon>
  </defs>
  <g id="Diseño-Secciones" stroke="none" stroke-width="1" fill="none" fill-rule="evenodd">
    <g id="2.1-Deportes-Clases-2" transform="translate(-90.000000, -341.000000)">
      <g id="Group-6" filter="url(#filter-1)" transform="translate(65.000000, 325.000000)">
        <g id="Group-85" transform="translate(29.000000, 19.000000)">
          <path d="M266.569738,157.450566 L266.553873,155.818862 C266.266976,126.903755 254.760033,99.7653925 234.154361,79.4023905 C213.533485,59.0248845 186.188382,47.8027192 157.156934,47.8027192 C128.124824,47.8027192 100.780382,59.0248845 80.1595065,79.4023905 C59.5531739,99.7653925 48.0468918,126.903755 47.7599949,155.818862 L47.7441297,157.450566 L1.66677811,157.450566 L1.68132126,155.788536 C2.03696758,114.713776 18.3424918,76.1548058 47.5940707,47.2146466 C76.8641592,18.2553683 115.691747,2.3075256 156.924904,2.3075256 C198.157401,2.3075256 236.98565,18.2553683 266.255738,47.2146466 C295.507317,76.1548058 311.812841,114.713776 312.168488,155.788536 L312.18237,157.450566 L266.569738,157.450566 Z" id="Fill-1" fill="#FFD100"></path>
          <g id="Group-5" transform="translate(0.000000, 0.460833)">
            <mask id="mask-3" fill="white">
              <use xlink:href="#path-2"></use>
            </mask>
            <g id="Clip-4"></g>
            <path d="M156.925103,0.198375605 C135.856033,0.198375605 115.407692,4.2937869 96.1479238,12.3718736 C77.5472248,20.1730651 60.8199491,31.3471034 46.4308164,45.5834704 C32.0469722,59.8139038 20.7105806,76.399924 12.7369638,94.8813575 C4.48570484,114.004265 0.210677474,134.336281 0.028888,155.313067 L-0.000198315789,158.637787 L3.33415116,158.637787 L46.1075617,158.637787 L49.3804333,158.637787 L49.4128248,155.37438 C49.6950943,126.896372 61.0275196,100.168077 81.3224964,80.112297 C101.632016,60.042672 128.563962,48.9899401 157.157132,48.9899401 C185.749642,48.9899401 212.681587,60.042672 232.991107,80.112297 C253.286084,100.168077 264.618509,126.896372 264.90144,155.37438 L264.933831,158.637787 L268.206042,158.637787 L310.516054,158.637787 L313.849743,158.637787 L313.821317,155.313067 C313.639528,134.336281 309.36384,114.004265 301.113242,94.8813575 C293.139625,76.399924 281.803233,59.8139038 267.419389,45.5834704 C253.030256,31.3471034 236.302981,20.1730651 217.701621,12.3718736 C198.442513,4.2937869 177.994172,0.198375605 156.925103,0.198375605 M156.925103,3.49474657 C241.308471,3.49474657 309.788896,71.3564764 310.516054,155.341416 L268.206042,155.341416 C267.604484,94.6829159 218.121389,45.6935692 157.157132,45.6935692 C96.1922143,45.6935692 46.7091196,94.6829159 46.1075617,155.341416 L3.33415116,155.341416 C4.06130905,71.3564764 72.5410733,3.49474657 156.925103,3.49474657" id="Fill-3" fill="#1D1B70" mask="url(#mask-3)"></path>
          </g>
          <path d="M156.925103,325.153439 C115.691945,325.153439 76.8650185,309.205596 47.5942691,280.246318 C18.3426901,251.306159 2.03716589,212.747189 1.68151958,171.672429 L1.66697642,170.010399 L47.7430059,170.010399 L47.7661427,171.635509 C48.1700459,200.454362 59.7278901,227.483945 80.3104248,247.744759 C100.913452,268.026671 128.204349,279.196094 157.157132,279.196094 C186.109254,279.196094 213.400151,268.026671 234.003179,247.744759 C254.585713,227.483945 266.143557,200.454362 266.548122,171.635509 L266.570597,170.010399 L312.182568,170.010399 L312.168686,171.672429 C311.81304,212.747189 295.507515,251.306159 266.255275,280.246318 C236.985187,309.205596 198.1576,325.153439 156.925103,325.153439" id="Fill-6" fill="#FFD200"></path>
          <g id="Group-10" transform="translate(0.000000, 167.916478)">
            <mask id="mask-5" fill="white">
              <use xlink:href="#path-4"></use>
            </mask>
            <g id="Clip-9"></g>
            <path d="M313.849875,0.445603427 L310.516187,0.445603427 L268.200224,0.445603427 L264.941235,0.445603427 L264.895622,3.6958252 C264.497008,32.0788978 253.113681,58.7003897 232.842502,78.655301 C212.550831,98.6306498 185.67177,109.631299 157.156603,109.631299 C128.642098,109.631299 101.763037,98.6306498 81.4713655,78.655301 C61.2001865,58.7003897 49.8161992,32.0788978 49.4182455,3.6958252 L49.3726328,0.445603427 L46.1129823,0.445603427 L3.33428337,0.445603427 L-6.61052631e-05,0.445603427 L0.0290202105,3.77032319 C0.210148632,24.7471095 4.48583705,45.0797849 12.737096,64.2020329 C20.7107128,82.6834663 32.0471044,99.2694865 46.4302876,113.49992 C60.8200813,127.736287 77.5473571,138.910325 96.148056,146.711517 C115.407824,154.788944 135.856165,158.885015 156.924574,158.885015 C177.993643,158.885015 198.441984,154.788944 217.701753,146.711517 C236.302452,138.910325 253.029728,127.736287 267.419521,113.49992 C281.802704,99.2694865 293.139096,82.6834663 301.112713,64.2020329 C309.363972,45.0797849 313.63966,24.7471095 313.82145,3.77032319 L313.849875,0.445603427 Z M310.516187,3.7419744 C309.788368,87.7275732 241.308603,155.588644 156.925235,155.588644 L156.924574,155.588644 C72.5412055,155.588644 4.06144126,87.7275732 3.33428337,3.7419744 L46.1129823,3.7419744 C46.9611128,64.1868696 96.3476939,112.92767 157.156603,112.92767 C217.966174,112.92767 267.352755,64.1868696 268.200224,3.7419744 L310.516187,3.7419744 Z" id="Fill-8" fill="#1D1B70" mask="url(#mask-5)"></path>
          </g>
          <path d="M139.120906,88.9053665 C138.000422,94.927177 118.23627,154.594129 85.6833945,193.195951 C101.551302,191.189121 117.669087,188.929788 133.67251,186.62101 C135.704586,181.793804 145.966106,153.53929 139.120906,88.9053665" id="Fill-11" fill="#FFD200"></path>
          <path d="M154.544917,183.585579 C176.091927,180.438864 198.154559,177.223583 219.954091,174.415075 C219.608361,172.622509 219.265275,170.824668 218.688176,169.1066 C206.287489,132.09165 185.555557,106.029882 152.382613,85.6695169 C149.757573,84.0595694 142.87866,79.014144 143.231662,80.0070109 C144.516748,83.6415895 145.534769,87.9618133 145.534769,87.9618133 C154.292395,137.639442 146.369018,174.582531 143.381721,185.214646 C147.115346,184.670745 150.837733,184.127503 154.544917,183.585579" id="Fill-13" fill="#FFD200"></path>
          <path d="M71.5250354,210.832789 C71.6876543,214.758766 75.4450775,215.812286 79.5601301,215.812286 L79.6678817,215.812286 C122.528551,215.626371 165.386576,215.695595 208.247246,215.656039 C210.087616,215.655379 215.359511,213.941926 216.942732,213.198924 C228.79805,207.630034 236.213077,202.237831 243.73784,191.233885 C245.147204,189.17695 247.70085,184.720916 247.805957,180.239829 C187.65149,186.922891 124.397347,198.255815 64.8371659,204.872291 C69.1531785,205.948885 71.4371154,208.672347 71.5250354,210.832789" id="Fill-15" fill="#FFD200"></path>
          <polygon id="Fill-17" fill="#1D1B70" points="31.6191389 130.814372 41.0417832 133.300495 40.7456316 136.343046 31.0050211 137.114396 40.5836737 138.003098 40.1070547 142.889638 18.8674337 140.920386 19.3744611 135.725965 30.77828 133.899116 19.9284232 130.039725 20.4347895 124.845963 41.6744105 126.815874 41.1977916 131.702415"></polygon>
          <polygon id="Fill-19" fill="#1D1B70" points="33.2988737 108.766002 34.5145495 105.158453 38.4610337 106.422941 37.2453579 110.031149 41.6744105 111.449907 43.3845537 106.375473 47.3310379 107.639961 44.0495726 117.37876 23.7770716 110.882272 27.0585368 101.144133 31.0050211 102.408621 29.2955389 107.483054"></polygon>
          <polygon id="Fill-21" fill="#1D1B70" points="40.9652333 74.5384633 47.5156038 84.2047415 59.3603448 85.0868504 56.4880712 89.8507657 49.7816922 88.7267032 54.0659743 93.8697012 51.1943617 98.6342758 44.6433301 88.9686569 32.7985891 88.086548 35.6708627 83.3219734 42.3878185 84.4869109 38.0936206 79.3030379"></polygon>
          <polygon id="Fill-23" fill="#1D1B70" points="52.8609415 60.0109609 68.9813709 73.651344 65.6847015 77.3604206 49.564272 63.7200375"></polygon>
          <path d="M78.5483891,55.5434552 L82.8135006,52.1442375 C85.5925659,55.4623645 85.9574669,58.9729996 82.1339385,62.0208242 C76.9625238,66.1432657 74.5443933,64.720552 69.2691933,58.4225056 C64.1652059,52.3275157 63.1081827,49.4056125 68.1817617,45.3616246 C72.0052901,42.3138 75.4592901,43.3627052 78.2383554,46.6814915 L73.9732438,50.0807093 C72.7635175,48.6355802 71.6919512,47.7956649 70.6137743,48.6553585 C69.3881827,49.6324028 69.8912438,50.6239512 73.5594248,55.0035097 C77.3023048,59.4727294 78.0598712,60.0357496 79.2854627,59.0587052 C80.3643006,58.1990117 79.7964564,57.0334149 78.5483891,55.5434552" id="Fill-25" fill="#1D1B70"></path>
          <path d="M95.6879634,40.397224 C98.4108392,45.521103 99.0051255,46.2377341 100.409862,45.5270365 C101.814599,44.8169982 101.55745,43.9289558 98.8352349,38.8050768 C96.1672265,33.7847038 95.4903086,32.9131433 94.0855718,33.6238409 C92.6801739,34.3338792 93.020616,35.376851 95.6879634,40.397224 M103.751483,36.3182946 C107.450073,43.2795708 108.361664,46.0689599 102.320965,49.1240365 C96.2802665,52.1797724 94.4696434,49.8452825 90.7710539,42.8846655 C87.1960813,36.1561131 86.1331086,33.0819175 92.1744686,30.0261817 C98.2151676,26.9704458 100.177172,29.5897421 103.751483,36.3182946" id="Fill-27" fill="#1D1B70"></path>
          <polygon id="Fill-29" fill="#1D1B70" points="126.510534 29.8591216 127.46906 39.3355288 124.447389 40.143799 120.25301 31.533678 122.799384 40.5855127 117.945275 41.8842829 112.299885 21.8139986 117.45874 20.4334784 123.25485 30.1867808 123.106113 18.9217627 128.264307 17.5412425 133.909696 37.6115268 129.056909 38.910297"></polygon>
          <path d="M149.63508,28.7913611 L152.225085,28.6370909 L150.475278,21.4094679 L149.63508,28.7913611 Z M152.594613,14.7119014 L158.944685,35.1882986 L153.920685,35.4876091 L153.154525,32.3494639 L149.205396,32.5848248 L148.834546,35.7908752 L143.811207,36.0901857 L147.571274,15.0112119 L152.594613,14.7119014 Z" id="Fill-31" fill="#1D1B70"></path>
          <path d="M175.504582,25.4772556 C177.918746,25.8022778 178.501795,25.2919996 178.828355,22.9812435 C179.154253,20.6704875 178.77547,19.736296 176.361306,19.4112738 L175.504582,25.4772556 Z M175.071592,28.538925 L173.974245,36.3084714 L168.989908,35.6373302 L171.903828,15.0145742 L176.888165,15.6857153 C182.75038,16.4755258 184.510763,18.7137617 183.898628,23.0465117 C183.563475,25.4146246 182.848216,27.0845661 181.292098,27.6990097 C183.659988,29.9306528 181.989508,34.9741004 182.312763,37.4312153 L177.328426,36.7600742 C177.175062,34.6794048 178.58046,30.8358363 176.890148,28.7835157 L175.071592,28.538925 Z" id="Fill-33" fill="#1D1B70"></path>
          <polygon id="Fill-35" fill="#1D1B70" points="203.330469 21.4659677 197.049808 41.358248 192.24065 39.9124597 198.52065 20.0201794"></polygon>
          <polygon id="Fill-37" fill="#1D1B70" points="229.913907 32.8629067 220.246673 51.4227937 215.76077 49.1990619 215.912812 37.7290095 211.133402 46.905447 206.647499 44.6810558 216.314071 26.1211688 220.77221 28.3310558 220.377562 40.3351204 225.427343 30.6385155"></polygon>
          <path d="M239.630918,52.1543903 C235.884733,56.6216323 235.445133,57.4378137 236.670063,58.4155173 C237.894994,59.393221 238.628101,58.8104226 242.374286,54.3431806 C246.045112,49.9662593 246.597752,49.0136081 245.372821,48.0365637 C244.147891,47.0588601 243.301082,47.7768097 239.630918,52.1543903 M246.661874,57.7634952 C241.572429,63.8334327 239.307663,65.7545577 234.040396,61.5516847 C228.773128,57.349471 230.253886,54.803354 235.343331,48.7334165 C240.262884,42.8671948 242.735882,40.6981827 248.003149,44.9003964 C253.269756,49.1032694 251.580766,51.8972734 246.661874,57.7634952" id="Fill-39" fill="#1D1B70"></path>
          <polygon id="Fill-41" fill="#1D1B70" points="250.095712 70.7605585 252.810655 73.8584879 249.811459 76.3591149 247.096516 73.2611855"></polygon>
          <path d="M266.856371,88.5895742 L269.610977,93.2414129 C265.807941,95.3853726 262.197933,95.1744048 259.72824,91.0038363 C256.388602,85.362427 258.215752,83.2626387 265.433785,79.1935984 C272.418467,75.2550944 275.543924,74.705919 278.820762,80.2392073 C281.289794,84.4104351 279.674181,87.5676992 275.871145,89.7116589 L273.116539,85.0598202 C274.773137,84.1262879 275.794463,83.2290157 275.097714,82.0528706 C274.307095,80.7158625 273.222307,81.0422032 268.203596,83.8718081 C263.08176,86.7600883 262.390299,87.398925 263.181579,88.7359331 C263.878328,89.9120782 265.148872,89.5521145 266.856371,88.5895742" id="Fill-43" fill="#1D1B70"></path>
          <path d="M279.224335,107.765487 C273.556469,109.420265 272.723543,109.856705 273.177686,111.336116 C273.631168,112.814868 274.572507,112.733118 280.240373,111.07834 C285.793876,109.457185 286.798676,108.969981 286.344533,107.49057 C285.890389,106.011818 284.777177,106.144332 279.224335,107.765487 M281.828221,116.254961 C274.128941,118.503745 271.149577,118.857775 269.198149,112.498417 C267.247383,106.137739 269.935884,104.836991 277.635825,102.588866 C285.077956,100.415898 288.371981,99.9689105 290.323408,106.328929 C292.274175,112.688947 289.271013,114.081993 281.828221,116.254961" id="Fill-45" fill="#1D1B70"></path>
          <polygon id="Fill-47" fill="#1D1B70" points="283.590918 139.457325 273.899225 138.318758 273.744539 135.266319 283.270968 133.136204 273.659924 133.600992 273.412029 128.698629 294.722383 127.668184 294.986143 132.879087 283.96904 136.286216 295.275023 138.583127 295.538783 143.794031 274.228429 144.824476 273.980535 139.922113"></polygon>
          <polygon id="Fill-49" fill="#1D1B70" points="282.652884 195.136393 273.111912 192.673345 273.398808 189.63475 283.246509 188.843621 273.555478 187.977334 274.015571 183.096068 295.505731 185.018512 295.015891 190.206341 283.490438 192.054286 294.479777 195.885328 293.989937 201.071839 272.501099 199.150054 272.961192 194.269447"></polygon>
          <polygon id="Fill-51" fill="#1D1B70" points="281.145221 217.135516 279.95731 220.74636 275.956619 219.497036 277.144531 215.88685 272.654661 214.484574 270.98352 219.562963 266.98283 218.314298 270.189596 208.568248 290.739739 214.984304 287.533634 224.729695 283.532283 223.48103 285.203424 218.402641"></polygon>
          <polygon id="Fill-53" fill="#1D1B70" points="273.903324 251.390744 267.146044 241.748199 255.190907 240.927403 258.010957 236.142391 264.790052 237.232171 260.389425 232.106314 263.209475 227.321961 269.966094 236.963846 281.921231 237.784643 279.101842 242.569655 272.311509 241.43834 276.722713 246.605731"></polygon>
          <polygon id="Fill-55" fill="#1D1B70" points="262.182861 266.017401 245.718023 252.431078 248.970402 248.691675 265.43524 262.277338"></polygon>
          <path d="M236.433406,270.673525 L232.210602,274.115595 C229.358821,270.797468 228.928476,267.271011 232.714985,264.184948 C237.83616,260.010424 240.290648,261.425886 245.702686,267.723273 C250.940206,273.818922 252.054741,276.749396 247.030741,280.844807 C243.244893,283.93087 239.756518,282.897787 236.904737,279.578341 L241.128202,276.136271 C242.368998,277.580741 243.461057,278.419337 244.528657,277.549095 C245.742349,276.559525 245.218796,275.565339 241.455423,271.18644 C237.614707,266.716561 236.843259,266.154859 235.630227,267.14443 C234.561966,268.015331 235.152947,269.183565 236.433406,270.673525" id="Fill-57" fill="#1D1B70"></path>
          <path d="M219.520441,286.013846 C216.70634,280.868871 216.098832,280.149602 214.702028,280.874804 C213.305885,281.600006 213.5789,282.492663 216.393001,287.637639 C219.14959,292.67779 219.843035,293.552647 221.239839,292.826786 C222.635982,292.102244 222.277691,291.054657 219.520441,286.013846 M211.505178,290.174526 C207.68231,283.18556 206.721801,280.381008 212.726803,277.263959 C218.731144,274.14757 220.585397,276.487334 224.408264,283.476959 C228.102887,290.231223 229.220066,293.321901 223.215064,296.438949 C217.210062,299.555998 215.200462,296.930108 211.505178,290.174526" id="Fill-59" fill="#1D1B70"></path>
          <polygon id="Fill-61" fill="#1D1B70" points="188.80311 296.842029 187.721628 287.284531 190.734706 286.448572 195.042125 295.111435 192.378083 285.993013 197.216988 284.650731 203.125476 304.869352 197.981165 306.296681 192.056811 296.490636 192.350979 307.857183 187.207329 309.283852 181.299501 289.065231 186.139068 287.722949"></polygon>
          <path d="M165.684645,298.063005 L163.095302,298.235076 L164.907247,305.522033 L165.684645,298.063005 Z M162.844102,312.299372 L156.321496,291.662112 L161.34219,291.328519 L162.134792,294.491717 L166.082599,294.229985 L166.426346,290.990312 L171.447041,290.657378 L167.864797,311.96512 L162.844102,312.299372 Z" id="Fill-63" fill="#1D1B70"></path>
          <path d="M139.821291,301.583464 C137.405805,301.272286 136.82474,301.791135 136.507435,304.125625 C136.190129,306.460115 136.57354,307.40024 138.989026,307.711417 L139.821291,301.583464 Z M140.241721,298.490149 L141.307338,290.640171 L146.295641,291.282964 L143.465675,312.119324 L138.478032,311.476532 C132.611851,310.720345 130.842213,308.473538 131.4365,304.095957 C131.761077,301.703451 132.469725,300.012413 134.02386,299.382147 C131.646053,297.14523 133.296702,292.042447 132.96287,289.564895 L137.950512,290.207687 C138.11247,292.306816 136.722938,296.195875 138.421843,298.256107 L140.241721,298.490149 Z" id="Fill-65" fill="#1D1B70"></path>
          <polygon id="Fill-67" fill="#1D1B70" points="111.996066 305.850682 118.244335 285.729633 123.060765 287.148391 116.813156 307.26944"></polygon>
          <polygon id="Fill-69" fill="#1D1B70" points="85.3329044 294.570302 95.0146813 275.790218 99.5111613 277.990875 99.3611023 289.545974 104.148445 280.260756 108.644264 282.461413 98.9618265 301.242157 94.4944328 299.055345 94.8870981 286.9603 89.8287234 296.771619"></polygon>
          <path d="M75.5714046,275.269127 C79.3321331,270.736617 79.7730552,269.910547 78.5428362,268.942073 C77.3119562,267.972281 76.5755436,268.566287 72.8148152,273.099456 C69.1301078,277.540986 68.5754846,278.504186 69.8057036,279.473319 C71.0359225,280.441793 71.8866973,279.710658 75.5714046,275.269127 M68.5080573,269.708809 C73.6173331,263.549869 75.8913541,261.593144 81.1824194,265.759756 C86.4741457,269.924392 84.9874383,272.500835 79.8781625,278.660434 C74.9394383,284.612361 72.4571857,286.820271 67.1654594,282.654976 C61.8743941,278.490341 63.5693331,275.661396 68.5080573,269.708809" id="Fill-71" fill="#1D1B70"></path>
          <polygon id="Fill-73" fill="#1D1B70" points="65.0526691 256.723151 62.3132669 253.650933 65.3243617 251.102839 68.0637638 254.173738"></polygon>
          <path d="M48.0799444,239.086314 L45.2724539,234.472054 C49.0953213,232.266781 52.7370602,232.423029 55.2543486,236.559316 C58.6581086,242.154576 56.8283149,244.28535 49.5739234,248.470423 C42.5535444,252.520344 39.4049507,253.118965 36.0653128,247.629189 C33.5486855,243.492243 35.1583486,240.30729 38.9805549,238.102017 L41.7873844,242.715618 C40.1235149,243.676181 39.0988834,244.589935 39.8088539,245.756191 C40.6153381,247.08265 41.7060749,246.739169 46.7505676,243.829132 C51.8988455,240.859761 52.5922897,240.209058 51.7851444,238.882598 C51.0751739,237.716342 49.7960371,238.096084 48.0799444,239.086314" id="Fill-75" fill="#1D1B70"></path>
          <path d="M35.4398909,220.181428 C41.1434531,218.420507 41.9790236,217.968904 41.5010825,216.499382 C41.0231415,215.030519 40.0732088,215.12941 34.3696467,216.890991 C28.7811078,218.615652 27.7730025,219.121975 28.2509436,220.590838 C28.7282236,222.06036 29.851352,221.907408 35.4398909,220.181428 M32.6978446,211.748652 C40.4460425,209.356805 43.4505267,208.946078 45.5057394,215.263902 C47.5596299,221.580408 44.860552,222.930602 37.1123541,225.323108 C29.6226278,227.635842 26.3008383,228.144142 24.2462867,221.826977 C22.1923962,215.510471 25.2074573,214.062045 32.6978446,211.748652" id="Fill-77" fill="#1D1B70"></path>
          <polygon id="Fill-79" fill="#1D1B70" points="30.4755179 188.637334 40.2994211 189.56691 40.5215347 192.610779 30.9349495 194.940654 40.6418463 194.270832 40.9981537 199.160009 19.4729579 200.644035 19.0941747 195.448296 30.1608568 191.81108 18.6803558 189.760078 18.3015726 184.563679 39.8267684 183.079652 40.1830758 187.968171"></polygon>
          <path d="M253.12406,73.7218204 C253.12406,75.387147 251.770224,76.7373405 250.100405,76.7373405 C248.430586,76.7373405 247.077411,75.387147 247.077411,73.7218204 C247.077411,72.0564937 248.430586,70.7063002 250.100405,70.7063002 C251.770224,70.7063002 253.12406,72.0564937 253.12406,73.7218204" id="Fill-81" fill="#1D1B70"></path>
          <path d="M68.0812817,253.627661 C68.0812817,255.221127 66.7862796,256.512645 65.1885154,256.512645 C63.5907512,256.512645 62.2957491,255.221127 62.2957491,253.627661 C62.2957491,252.034195 63.5907512,250.742677 65.1885154,250.742677 C66.7862796,250.742677 68.0812817,252.034195 68.0812817,253.627661" id="Fill-83" fill="#1D1B70"></path>
        </g>
      </g>
    </g>
  </g>
</svg>
