<?xml version="1.0" encoding="UTF-8"?>
<svg width="240px" height="86px" viewBox="0 0 240 86" version="1.1" xmlns="http://www.w3.org/2000/svg" xmlns:xlink="http://www.w3.org/1999/xlink">
  <!-- Generator: Sketch 52.3 (67297) - http://www.bohemiancoding.com/sketch -->
  <title>Group 43</title>
  <desc>Created with Sketch.</desc>
  <defs>
    <polygon id="path-1" points="4.26287761e-05 0.14359863 238.760824 0.14359863 238.760824 11.1084926 4.26287761e-05 11.1084926"></polygon>
  </defs>
  <g id="Diseño-Secciones" stroke="none" stroke-width="1" fill="none" fill-rule="evenodd">
    <g id="0.0-Inicio" transform="translate(-50.000000, -19.000000)">
      <g id="Header">
        <g id="Group-43" transform="translate(50.000000, 19.000000)">
          <polygon id="Fill-1" fill="#FFD200" points="21.0618117 49.1854573 15.9148135 31.3362459 6.70145648 31.3362459 1.60561279 67.8605424 10.8189698 67.8605424 12.2602487 57.3365274 12.7227709 49.9596338 12.9295204 49.9075093 16.0691297 62.4438705 22.399929 62.4438705 28.9370515 49.9075093 29.194103 49.9596338 27.6505151 57.3365274 26.1576554 67.8605424 35.422167 67.8605424 40.5180107 31.3362459 31.3046536 31.3362459"></polygon>
          <path d="M57.4016057,52.3322369 L61.4163837,41.6535575 L61.7770231,41.6535575 L62.8580888,52.3322369 L57.4016057,52.3322369 Z M58.8428845,31.3359041 L41.0338615,67.8606279 L50.9164902,67.8606279 L54.1596874,60.5350042 L63.8875737,60.5350042 L65.2768455,67.8606279 L75.1599005,67.8606279 L67.2330799,31.3359041 L58.8428845,31.3359041 Z" id="Fill-2" fill="#FFD200"></path>
          <g id="Group-42" transform="translate(0.000000, 0.272585)">
            <path d="M102.80206,43.8054862 C102.544156,45.9207995 100.89698,48.0361129 98.0664298,48.0361129 L92.6615275,48.0361129 L93.8457549,39.6782539 L99.2498046,39.6782539 C101.978046,39.6782539 103.059112,41.5872056 102.80206,43.8054862 M100.279716,31.0636179 L85.7134636,31.0636179 L80.6176199,67.5883416 L89.9341385,67.5883416 L91.5293073,55.9803941 L93.1760568,55.9803941 L100.588774,67.5883416 L112.067425,67.5883416 L103.317016,55.0519804 C108.309272,52.6790355 111.192256,50.4090578 112.118579,43.6508218 C113.147638,35.0870285 107.794316,31.0636179 100.279716,31.0636179" id="Fill-3" fill="#FFD200"></path>
            <polygon id="Fill-5" fill="#FFD200" points="116.80297 67.5881707 126.016327 67.5881707 131.112171 31.063447 121.898813 31.063447"></polygon>
            <polygon id="Fill-7" fill="#FFD200" points="157.516348 47.6232187 157.619936 53.9170343 157.414039 53.9687315 155.355069 46.6431079 148.714785 31.063447 139.965229 31.063447 134.869385 67.5881707 144.082316 67.5881707 146.089705 52.9886207 145.986544 45.9210559 146.193293 45.8693586 148.354146 53.1949823 154.582636 67.5881707 163.899155 67.5881707 168.994998 31.063447 159.833222 31.063447"></polygon>
            <path d="M196.327503,43.0836905 L194.526437,55.3098684 C194.114217,58.1985037 190.871872,59.5400678 187.886153,59.5400678 C185.106757,59.5400678 182.378515,58.1985037 182.739155,55.5679272 L184.540647,43.0836905 C184.952014,40.3492923 188.195211,38.9564582 191.180078,38.9564582 C194.166224,38.9564582 196.739723,40.3492923 196.327503,43.0836905 M192.158835,30.5473293 C184.591801,30.5473293 176.561819,34.6745616 175.32729,43.0836905 L173.525798,55.5679272 C172.341144,63.9253589 179.29006,68.1038611 186.857094,68.1038611 C194.783488,68.1038611 202.555567,63.9253589 203.739794,55.5679272 L205.541712,43.0836905 C206.725087,34.7258315 199.725016,30.5473293 192.158835,30.5473293" id="Fill-9" fill="#FFD200"></path>
            <g id="Group-13" transform="translate(0.000000, 74.341451)">
              <mask id="mask-2" fill="white">
                <use xlink:href="#path-1"></use>
              </mask>
              <g id="Clip-12"></g>
              <path d="M235.714146,1.80859077 C232.146544,5.3133202 227.440753,7.24918866 222.450629,7.16544772 C217.464341,7.11588675 212.792654,5.11977608 209.297094,1.5449777 L207.926153,0.14359863 L206.216313,1.80859077 C202.649137,5.31289295 197.927147,7.22953518 192.952796,7.16544772 C187.966082,7.11588675 183.294394,5.11977608 179.798835,1.5449777 L178.427893,0.14359863 L176.718053,1.80859077 C173.15173,5.31289295 168.431446,7.22953518 163.454536,7.16544772 C158.467396,7.11588675 153.796135,5.11977608 150.300149,1.5449777 L148.929208,0.14359863 L147.219794,1.80859077 C139.863346,9.03637423 128.010842,8.9167443 120.80189,1.5449777 L119.430948,0.14359863 L117.721108,1.80859077 C114.153933,5.3133202 109.43919,7.24918866 104.458018,7.16544772 C99.47173,7.11588675 94.8000426,5.11977608 91.3040568,1.5449777 L89.9331155,0.14359863 L88.2237016,1.80859077 C84.6578046,5.31289295 79.9439147,7.22953518 74.9601847,7.16544772 C69.9734707,7.11588675 65.3017833,5.11977608 61.8057975,1.5449777 L60.4348561,0.14359863 L58.7254423,1.80859077 C55.1595453,5.31289295 50.4482131,7.22953518 45.4619254,7.16544772 C40.4747851,7.11588675 35.8030977,5.11977608 32.3075382,1.5449777 L30.9365968,0.14359863 L29.2267567,1.80859077 C21.8703091,9.03637423 10.0182309,8.9167443 2.80927886,1.5449777 L4.26287761e-05,4.30415637 C8.38768028,12.8782037 21.9538615,13.3473239 30.8982309,5.62136724 C34.9394387,9.11883342 40.0280355,11.0534201 45.4227069,11.1072536 C50.9614636,11.1559601 56.2342167,9.2226551 60.3964902,5.62179449 C64.437698,9.11883342 69.5271474,11.0534201 74.9209663,11.1072536 C80.4477869,11.1559601 85.7333286,9.2226551 89.8947496,5.62179449 C93.9363837,9.11883342 99.0249805,11.0534201 104.418373,11.1072536 C109.959687,11.1619416 115.231162,9.22308235 119.393009,5.62093999 C127.830522,12.9051204 140.428604,12.9307554 148.890842,5.62136724 C152.93205,9.11883342 158.021073,11.0534201 163.415318,11.1072536 C168.963879,11.1559601 174.22768,9.2226551 178.389101,5.62179449 C182.430309,9.11883342 187.520185,11.0534201 192.914004,11.1072536 C198.450202,11.1559601 203.725513,9.2226551 207.887787,5.62179449 C211.928995,9.11883342 217.017591,11.0534201 222.41141,11.1072536 C222.488995,11.1081081 222.5653,11.1085353 222.642885,11.1085353 C228.593861,11.1081081 234.205513,8.81078638 238.46157,4.62972065 L238.760824,4.33790909 L236.018941,1.51122497 L235.714146,1.80859077 Z" id="Fill-11" fill="#FFD200" mask="url(#mask-2)"></path>
            </g>
            <path d="M165.711986,15.2087654 C172.598238,20.9535651 182.696568,20.9740731 189.603709,15.2083382 C196.491666,20.9539924 206.588718,20.9732186 213.494153,15.2091927 C216.79362,17.9687986 220.904313,19.4923711 225.255005,19.5355233 C225.318948,19.5363778 225.381613,19.5363778 225.445556,19.5363778 C230.36449,19.5363778 235.002075,17.6376801 238.516817,14.1846479 L238.759375,13.9483788 L236.020902,11.1195584 L235.771098,11.3626635 C232.989144,14.0953527 229.327332,15.5949992 225.444703,15.5949992 C225.393975,15.5949992 225.343673,15.5945719 225.294224,15.5941447 C221.355325,15.5548377 217.664526,13.977859 214.903034,11.1541656 L213.532945,9.75364105 L211.879375,11.3622362 C206.06822,17.0720014 196.706941,16.9775793 191.011311,11.1541656 L189.641222,9.75364105 L187.987652,11.3622362 C182.17735,17.0715742 172.815218,16.9780065 167.118735,11.1541656 L165.748647,9.75364105 L164.095503,11.3626635 C161.313549,14.0953527 157.651737,15.5949992 153.768682,15.5949992 C153.71838,15.5949992 153.668078,15.5945719 153.618202,15.5941447 C149.67973,15.5548377 145.988931,13.977859 143.227012,11.1541656 L140.418202,13.9133443 C143.915893,17.4889972 148.589712,19.4859623 153.57941,19.5355233 C158.051169,19.5957655 162.311915,18.0525395 165.711986,15.2087654" id="Fill-14" fill="#FFD200"></path>
            <path d="M208.387396,67.9069417 C209.066472,67.9069417 209.696526,67.3498081 209.795425,66.6563818 C209.894323,65.9753458 209.412192,65.4310296 208.732689,65.4310296 C208.053187,65.4310296 207.435922,65.9753458 207.337023,66.6563818 C207.238124,67.3498081 207.707893,67.9069417 208.387396,67.9069417" id="Fill-16" fill="#FFD200"></path>
            <path d="M214.092107,61.9398013 C214.178643,61.3454969 214.80827,60.9989974 215.43875,60.9866072 C215.957542,60.9866072 216.475908,61.196814 216.673705,61.6919965 L218.575375,60.9613995 C218.094522,59.401938 216.85914,58.9439263 215.784043,58.9439263 C214.029869,58.9439263 212.15335,59.9590716 211.881378,61.9398013 L211.461059,64.9604568 C211.189513,66.9535767 212.770615,67.9563318 214.487275,67.9563318 C215.586671,67.9563318 216.846778,67.5231006 217.921023,65.9879924 L216.117826,65.0967495 C215.821982,65.6538831 215.253314,65.8892977 214.747311,65.8892977 C214.129194,65.8892977 213.585677,65.5299807 213.672213,64.9604568 L214.092107,61.9398013 Z" id="Fill-18" fill="#FFD200"></path>
            <path d="M224.835709,61.9521488 L224.403453,64.8860726 C224.304128,65.5794989 223.527005,65.9012179 222.809989,65.9012179 C222.143275,65.9012179 221.488071,65.5794989 221.575034,64.9484511 L222.00729,61.9521488 C222.106188,61.2958933 222.883737,60.961784 223.600327,60.961784 C224.317343,60.961784 224.934607,61.2958933 224.835709,61.9521488 M223.835638,58.9438836 C222.019226,58.9438836 220.092405,59.9342484 219.796135,61.9521488 L219.363453,64.9484511 C219.079972,66.953534 220.746757,67.9562891 222.563169,67.9562891 C224.465265,67.9562891 226.330274,66.953534 226.614607,64.9484511 L227.046437,61.9521488 C227.330771,59.9466386 225.650771,58.9438836 223.835638,58.9438836" id="Fill-20" fill="#FFD200"></path>
            <polygon id="Fill-22" fill="#FFD200" points="234.009421 67.832643 236.232938 67.832643 237.455531 59.0676151 235.244803 59.0676151 232.786401 63.3512207 231.55102 59.0676151 229.340718 59.0676151 228.118124 67.832643 230.328853 67.832643 230.674998 65.3071699 230.785833 63.5366471 230.835282 63.5246841 231.588533 66.5329494 233.107822 66.5329494 234.676561 63.5246841 234.738799 63.5366471 234.367929 65.3071699"></polygon>
            <path d="M220.745776,49.3323885 C221.086806,48.5180505 222.810288,43.7499437 221.66059,32.8426857 C221.472597,33.8591128 218.153947,43.9281068 212.687659,50.441956 C215.351957,50.103147 218.058458,49.7220402 220.745776,49.3323885" id="Fill-24" fill="#FFD200"></path>
            <path d="M224.250799,48.8202443 C227.868703,48.2891729 231.57357,47.7465657 235.234103,47.2727458 C235.176128,46.970253 235.118579,46.6664784 235.021385,46.3768031 C232.93897,40.1308395 229.457904,35.732731 223.887602,32.2967887 C223.446821,32.0250579 222.291581,31.1739765 222.350835,31.3414584 C222.566536,31.9545617 222.737904,32.6834497 222.737904,32.6834497 C224.208171,41.0669437 222.877726,47.3009443 222.376412,49.0949658 C223.003055,49.0035344 223.628419,48.9116757 224.250799,48.8202443" id="Fill-26" fill="#FFD200"></path>
            <path d="M209.187325,52.4124317 C209.912014,52.5940128 210.295673,53.0533063 210.310167,53.4181775 C210.337449,54.0808418 210.968355,54.2585777 211.659368,54.2585777 L211.677698,54.2585777 C218.874714,54.2273885 226.071304,54.238497 233.26832,54.2320882 C233.577378,54.2320882 234.462778,53.9428402 234.728355,53.817656 C236.719119,52.8777066 237.964306,51.9676647 239.227822,50.1108375 C239.464412,49.7639107 239.893258,49.0119512 239.910735,48.2557192 C229.809847,49.3832312 219.188462,51.2960282 209.187325,52.4124317" id="Fill-28" fill="#FFD200"></path>
            <polygon id="Fill-30" fill="#FFD200" points="11.53654 23.1984206 5.36304085 23.1984206 8.77760568 1.2476119 14.9511048 1.2476119 18.3997726 11.9749978 25.2634316 1.2476119 31.4369307 1.2476119 28.0219396 23.1984206 21.8143375 23.1984206 22.8144085 16.8734158 23.8490089 12.4398455 23.6767886 12.4090835 19.2966821 19.9427777 15.0542664 19.9427777 12.9505364 12.4090835 12.8124192 12.4398455 12.5020817 16.8734158"></polygon>
            <path d="M124.265307,7.98367365 L123.093016,15.6194806 C122.824881,17.4233289 120.713904,18.2611656 118.770458,18.2611656 C116.961293,18.2611656 115.185378,17.4233289 115.419837,15.7805537 L116.592554,7.98367365 C116.860689,6.27595653 118.971666,5.40650336 120.914686,5.40650336 C122.858558,5.40650336 124.533869,6.27595653 124.265307,7.98367365 M121.55156,0.154749847 C116.626231,0.154749847 111.399091,2.73192014 110.595112,7.98367365 L109.422394,15.7805537 C108.651666,20.999409 113.175005,23.6090503 118.10076,23.6090503 C123.260547,23.6090503 128.31973,20.999409 129.090458,15.7805537 L130.263176,7.98367365 C131.033478,2.76439111 126.476888,0.154749847 121.55156,0.154749847" id="Fill-32" fill="#FFD200"></path>
            <polygon id="Fill-34" fill="#FFD200" points="41.462238 9.77073104 45.6957016 9.77073104 45.0417762 14.0714267 40.8083126 14.0714267 40.0512256 18.8980667 46.0056128 18.8980667 45.3171581 23.1987624 33.8900888 23.1987624 37.3664654 1.10738854 48.7935346 1.10738854 48.1050799 5.40808418 42.1506927 5.40808418"></polygon>
            <polygon id="Fill-36" fill="#FFD200" points="72.3333144 0.856037532 64.9333854 11.9017244 68.8569378 22.9474114 62.6962274 22.9474114 61.1129947 16.3570845 57.4989272 22.9474114 51.3377904 22.9474114 58.7722487 11.9017244 54.814167 0.856037532 60.9748774 0.856037532 62.5240071 7.47712639 66.1721776 0.856037532"></polygon>
            <polygon id="Fill-38" fill="#FFD200" points="83.2028419 0.856037532 79.7268917 22.9474114 74.2542096 22.9474114 77.7305861 0.856037532"></polygon>
            <path d="M97.2234885,15.6457992 L103.212405,15.6457992 C102.489421,20.1938724 99.8391901,23.3187768 94.4700959,23.3187768 C87.2074316,23.3187768 86.5880355,20.5651524 87.9304156,11.9329991 C89.2382664,3.57898542 90.8905577,0.484842978 98.0151048,0.484842978 C103.384199,0.484842978 105.07102,3.61017465 104.382565,8.15824788 L98.3936483,8.15824788 C98.7035595,6.17794545 98.5999716,4.78553862 97.0857975,4.78553862 C95.3648739,4.78553862 94.9172718,5.93014061 93.9538615,11.9329991 C93.0241279,18.0589056 93.0931865,19.0180812 94.8141101,19.0180812 C96.3287105,19.0180812 96.879048,17.6876256 97.2234885,15.6457992" id="Fill-40" fill="#FFD200"></path>
          </g>
        </g>
      </g>
    </g>
  </g>
</svg>
